<svg width="1440" height="1024" viewBox="0 0 1440 1024" fill="none" xmlns="http://www.w3.org/2000/svg">
<rect width="1440" height="1024" fill="url(#paint0_radial_1004_180)"/>
<g filter="url(#filter0_d_1004_180)">
<rect x="279" y="46" width="882" height="933" rx="14" fill="#A8C0FF" fill-opacity="0.17" shape-rendering="crispEdges"/>
<path d="M347.233 75.0909V110H340.858L325.67 88.0284H325.415V110H318.034V75.0909H324.511L339.58 97.0455H339.886V75.0909H347.233ZM374.893 75.0909H382.274V97.7614C382.274 100.307 381.666 102.534 380.45 104.443C379.246 106.352 377.558 107.841 375.388 108.909C373.217 109.966 370.689 110.494 367.803 110.494C364.905 110.494 362.371 109.966 360.2 108.909C358.03 107.841 356.342 106.352 355.138 104.443C353.933 102.534 353.331 100.307 353.331 97.7614V75.0909H360.712V97.1307C360.712 98.4602 361.001 99.642 361.581 100.676C362.172 101.71 363.001 102.523 364.07 103.114C365.138 103.705 366.382 104 367.803 104C369.234 104 370.479 103.705 371.536 103.114C372.604 102.523 373.428 101.71 374.007 100.676C374.598 99.642 374.893 98.4602 374.893 97.1307V75.0909ZM388.347 75.0909H397.449L407.062 98.5455H407.472L417.085 75.0909H426.188V110H419.028V87.2784H418.739L409.705 109.83H404.83L395.795 87.1932H395.506V110H388.347V75.0909ZM432.268 110V75.0909H455.791V81.1761H439.649V89.4943H454.581V95.5795H439.649V103.915H455.859V110H432.268ZM461.659 110V75.0909H469.04V103.915H484.006V110H461.659ZM488.893 110V75.0909H512.416V81.1761H496.274V89.4943H511.206V95.5795H496.274V103.915H512.484V110H488.893ZM528.064 81.1761V75.0909H556.734V81.1761H546.047V110H538.751V81.1761H528.064ZM563.207 110H555.298L567.349 75.0909H576.861L588.895 110H580.986L572.241 83.0682H571.969L563.207 110ZM562.713 96.2784H581.395V102.04H562.713V96.2784ZM575.48 65.9545H580.543C580.531 68.0227 579.764 69.6875 578.241 70.9489C576.73 72.2102 574.685 72.8409 572.105 72.8409C569.514 72.8409 567.463 72.2102 565.952 70.9489C564.44 69.6875 563.685 68.0227 563.685 65.9545H568.713C568.702 66.7386 568.952 67.4432 569.463 68.0682C569.986 68.6932 570.866 69.0057 572.105 69.0057C573.31 69.0057 574.173 68.6989 574.696 68.0852C575.219 67.4716 575.48 66.7614 575.48 65.9545ZM614.659 75.0909H622.04V97.7614C622.04 100.307 621.432 102.534 620.216 104.443C619.011 106.352 617.324 107.841 615.153 108.909C612.983 109.966 610.455 110.494 607.568 110.494C604.67 110.494 602.136 109.966 599.966 108.909C597.795 107.841 596.108 106.352 594.903 104.443C593.699 102.534 593.097 100.307 593.097 97.7614V75.0909H600.477V97.1307C600.477 98.4602 600.767 99.642 601.347 100.676C601.938 101.71 602.767 102.523 603.835 103.114C604.903 103.705 606.148 104 607.568 104C609 104 610.244 103.705 611.301 103.114C612.369 102.523 613.193 101.71 613.773 100.676C614.364 99.642 614.659 98.4602 614.659 97.1307V75.0909Z" fill="black"/>
<path d="M337.4 235V233.242L344.734 224.072C345.255 223.421 345.75 222.855 346.219 222.373H338.23V220.684H348.484V222.373L340.447 232.305L339.578 233.311H348.719V235H337.4ZM350.193 228.027C350.193 225.651 350.831 223.792 352.107 222.451C353.383 221.104 355.031 220.43 357.049 220.43C358.37 220.43 359.562 220.745 360.623 221.377C361.684 222.008 362.492 222.891 363.045 224.023C363.605 225.15 363.885 226.429 363.885 227.861C363.885 229.313 363.592 230.612 363.006 231.758C362.42 232.904 361.59 233.773 360.516 234.365C359.441 234.951 358.283 235.244 357.039 235.244C355.691 235.244 354.487 234.919 353.426 234.268C352.365 233.617 351.561 232.728 351.014 231.602C350.467 230.475 350.193 229.284 350.193 228.027ZM352.146 228.057C352.146 229.782 352.609 231.143 353.533 232.139C354.464 233.128 355.63 233.623 357.029 233.623C358.455 233.623 359.627 233.122 360.545 232.119C361.469 231.117 361.932 229.694 361.932 227.852C361.932 226.686 361.733 225.671 361.336 224.805C360.945 223.932 360.369 223.258 359.607 222.783C358.852 222.301 358.003 222.061 357.059 222.061C355.717 222.061 354.562 222.523 353.592 223.447C352.628 224.365 352.146 225.902 352.146 228.057ZM366.316 235V220.684H368.26L375.779 231.924V220.684H377.596V235H375.652L368.133 223.75V235H366.316ZM379.217 235L384.715 220.684H386.756L392.615 235H390.457L388.787 230.664H382.801L381.229 235H379.217ZM383.348 229.121H388.201L386.707 225.156C386.251 223.952 385.913 222.962 385.691 222.188C385.509 223.105 385.252 224.017 384.92 224.922L383.348 229.121ZM387.566 217.275H388.768C388.67 218.089 388.37 218.714 387.869 219.15C387.374 219.587 386.714 219.805 385.887 219.805C385.053 219.805 384.386 219.59 383.885 219.16C383.39 218.724 383.094 218.096 382.996 217.275H384.197C384.288 217.718 384.467 218.05 384.734 218.271C385.008 218.486 385.372 218.594 385.828 218.594C386.355 218.594 386.753 218.49 387.02 218.281C387.293 218.066 387.475 217.731 387.566 217.275ZM399.617 235V220.684H401.512V233.311H408.562V235H399.617ZM411.15 235V220.684H413.045V235H411.15ZM416.316 235V220.684H421.688C422.781 220.684 423.657 220.83 424.314 221.123C424.979 221.41 425.496 221.855 425.867 222.461C426.245 223.06 426.434 223.688 426.434 224.346C426.434 224.958 426.268 225.534 425.936 226.074C425.604 226.615 425.102 227.051 424.432 227.383C425.298 227.637 425.962 228.07 426.424 228.682C426.893 229.294 427.127 230.016 427.127 230.85C427.127 231.52 426.984 232.145 426.697 232.725C426.417 233.298 426.069 233.74 425.652 234.053C425.236 234.365 424.712 234.603 424.08 234.766C423.455 234.922 422.687 235 421.775 235H416.316ZM418.211 226.699H421.307C422.146 226.699 422.749 226.644 423.113 226.533C423.595 226.39 423.956 226.152 424.197 225.82C424.445 225.488 424.568 225.072 424.568 224.57C424.568 224.095 424.454 223.678 424.227 223.32C423.999 222.956 423.673 222.708 423.25 222.578C422.827 222.441 422.101 222.373 421.072 222.373H418.211V226.699ZM418.211 233.311H421.775C422.387 233.311 422.817 233.288 423.064 233.242C423.501 233.164 423.865 233.034 424.158 232.852C424.451 232.669 424.692 232.406 424.881 232.061C425.07 231.709 425.164 231.305 425.164 230.85C425.164 230.316 425.027 229.854 424.754 229.463C424.48 229.066 424.1 228.789 423.611 228.633C423.13 228.47 422.433 228.389 421.521 228.389H418.211V233.311ZM429.773 235V220.684H440.125V222.373H431.668V226.758H439.588V228.438H431.668V233.311H440.457V235H429.773ZM443.104 235V220.684H449.451C450.727 220.684 451.697 220.814 452.361 221.074C453.025 221.328 453.556 221.781 453.953 222.432C454.35 223.083 454.549 223.802 454.549 224.59C454.549 225.605 454.22 226.462 453.562 227.158C452.905 227.855 451.889 228.298 450.516 228.486C451.017 228.727 451.398 228.965 451.658 229.199C452.212 229.707 452.736 230.342 453.23 231.104L455.721 235H453.338L451.443 232.021C450.89 231.162 450.434 230.505 450.076 230.049C449.718 229.593 449.396 229.274 449.109 229.092C448.829 228.91 448.543 228.783 448.25 228.711C448.035 228.665 447.684 228.643 447.195 228.643H444.998V235H443.104ZM444.998 227.002H449.07C449.936 227.002 450.613 226.914 451.102 226.738C451.59 226.556 451.961 226.27 452.215 225.879C452.469 225.482 452.596 225.052 452.596 224.59C452.596 223.913 452.348 223.356 451.854 222.92C451.365 222.484 450.59 222.266 449.529 222.266H444.998V227.002ZM455.955 235L461.453 220.684H463.494L469.354 235H467.195L465.525 230.664H459.539L457.967 235H455.955ZM460.086 229.121H464.939L463.445 225.156C462.99 223.952 462.651 222.962 462.43 222.188C462.247 223.105 461.99 224.017 461.658 224.922L460.086 229.121ZM464.305 217.275H465.506C465.408 218.089 465.109 218.714 464.607 219.15C464.113 219.587 463.452 219.805 462.625 219.805C461.792 219.805 461.124 219.59 460.623 219.16C460.128 218.724 459.832 218.096 459.734 217.275H460.936C461.027 217.718 461.206 218.05 461.473 218.271C461.746 218.486 462.111 218.594 462.566 218.594C463.094 218.594 463.491 218.49 463.758 218.281C464.031 218.066 464.214 217.731 464.305 217.275ZM471.102 235V232.998H473.104V235C473.104 235.736 472.973 236.328 472.713 236.777C472.452 237.233 472.039 237.585 471.473 237.832L470.984 237.08C471.355 236.917 471.629 236.676 471.805 236.357C471.98 236.045 472.078 235.592 472.098 235H471.102ZM482.322 235V220.684H484.217V235H482.322ZM483.26 218.145L482.156 219.805H480.145L482.254 217.07H484.129L486.326 219.805H484.334L483.26 218.145ZM487.547 235V220.684H489.49L497.01 231.924V220.684H498.826V235H496.883L489.363 223.75V235H487.547ZM517.801 229.98L519.695 230.459C519.298 232.015 518.582 233.203 517.547 234.023C516.518 234.837 515.258 235.244 513.768 235.244C512.225 235.244 510.968 234.932 509.998 234.307C509.035 233.675 508.299 232.764 507.791 231.572C507.29 230.381 507.039 229.102 507.039 227.734C507.039 226.243 507.322 224.945 507.889 223.838C508.462 222.725 509.272 221.882 510.32 221.309C511.375 220.729 512.534 220.439 513.797 220.439C515.229 220.439 516.434 220.804 517.41 221.533C518.387 222.262 519.067 223.288 519.451 224.609L517.586 225.049C517.254 224.007 516.772 223.249 516.141 222.773C515.509 222.298 514.715 222.061 513.758 222.061C512.658 222.061 511.736 222.324 510.994 222.852C510.258 223.379 509.741 224.089 509.441 224.98C509.142 225.866 508.992 226.781 508.992 227.725C508.992 228.942 509.168 230.007 509.52 230.918C509.878 231.823 510.431 232.5 511.18 232.949C511.928 233.398 512.739 233.623 513.611 233.623C514.673 233.623 515.571 233.317 516.307 232.705C517.042 232.093 517.54 231.185 517.801 229.98ZM520.467 235L525.965 220.684H528.006L533.865 235H531.707L530.037 230.664H524.051L522.479 235H520.467ZM524.598 229.121H529.451L527.957 225.156C527.501 223.952 527.163 222.962 526.941 222.188C526.759 223.105 526.502 224.017 526.17 224.922L524.598 229.121ZM535.408 235V220.684H541.756C543.032 220.684 544.002 220.814 544.666 221.074C545.33 221.328 545.861 221.781 546.258 222.432C546.655 223.083 546.854 223.802 546.854 224.59C546.854 225.605 546.525 226.462 545.867 227.158C545.21 227.855 544.194 228.298 542.82 228.486C543.322 228.727 543.702 228.965 543.963 229.199C544.516 229.707 545.04 230.342 545.535 231.104L548.025 235H545.643L543.748 232.021C543.195 231.162 542.739 230.505 542.381 230.049C542.023 229.593 541.701 229.274 541.414 229.092C541.134 228.91 540.848 228.783 540.555 228.711C540.34 228.665 539.988 228.643 539.5 228.643H537.303V235H535.408ZM537.303 227.002H541.375C542.241 227.002 542.918 226.914 543.406 226.738C543.895 226.556 544.266 226.27 544.52 225.879C544.773 225.482 544.9 225.052 544.9 224.59C544.9 223.913 544.653 223.356 544.158 222.92C543.67 222.484 542.895 222.266 541.834 222.266H537.303V227.002ZM549.871 235V220.684H560.223V222.373H551.766V226.758H559.686V228.438H551.766V233.311H560.555V235H549.871ZM568.738 235V220.684H574.139C575.089 220.684 575.815 220.729 576.316 220.82C577.02 220.938 577.609 221.162 578.084 221.494C578.559 221.82 578.94 222.279 579.227 222.871C579.52 223.464 579.666 224.115 579.666 224.824C579.666 226.042 579.279 227.074 578.504 227.92C577.729 228.76 576.329 229.18 574.305 229.18H570.633V235H568.738ZM570.633 227.49H574.334C575.558 227.49 576.427 227.262 576.941 226.807C577.456 226.351 577.713 225.71 577.713 224.883C577.713 224.284 577.56 223.773 577.254 223.35C576.954 222.92 576.557 222.637 576.062 222.5C575.743 222.415 575.154 222.373 574.295 222.373H570.633V227.49ZM581.502 228.027C581.502 225.651 582.14 223.792 583.416 222.451C584.692 221.104 586.339 220.43 588.357 220.43C589.679 220.43 590.87 220.745 591.932 221.377C592.993 222.008 593.8 222.891 594.354 224.023C594.913 225.15 595.193 226.429 595.193 227.861C595.193 229.313 594.9 230.612 594.314 231.758C593.729 232.904 592.898 233.773 591.824 234.365C590.75 234.951 589.591 235.244 588.348 235.244C587 235.244 585.796 234.919 584.734 234.268C583.673 233.617 582.869 232.728 582.322 231.602C581.775 230.475 581.502 229.284 581.502 228.027ZM583.455 228.057C583.455 229.782 583.917 231.143 584.842 232.139C585.773 233.128 586.938 233.623 588.338 233.623C589.764 233.623 590.936 233.122 591.854 232.119C592.778 231.117 593.24 229.694 593.24 227.852C593.24 226.686 593.042 225.671 592.645 224.805C592.254 223.932 591.678 223.258 590.916 222.783C590.161 222.301 589.311 222.061 588.367 222.061C587.026 222.061 585.87 222.523 584.9 223.447C583.937 224.365 583.455 225.902 583.455 228.057ZM601.287 235V222.373H596.57V220.684H607.918V222.373H603.182V235H601.287ZM601.209 238.184V236.182H603.211V238.184C603.211 239.355 602.667 240.179 601.58 240.654L601.092 239.912C601.482 239.736 601.775 239.482 601.971 239.15C602.101 238.936 602.179 238.613 602.205 238.184H601.209ZM610.193 235V220.684H612.088V235H610.193ZM620.359 230.4L622.146 230.244C622.231 230.96 622.426 231.549 622.732 232.012C623.045 232.467 623.527 232.839 624.178 233.125C624.829 233.405 625.561 233.545 626.375 233.545C627.098 233.545 627.736 233.438 628.289 233.223C628.842 233.008 629.253 232.715 629.52 232.344C629.793 231.966 629.93 231.556 629.93 231.113C629.93 230.664 629.799 230.273 629.539 229.941C629.279 229.603 628.849 229.32 628.25 229.092C627.866 228.942 627.016 228.711 625.701 228.398C624.386 228.079 623.465 227.78 622.938 227.5C622.254 227.142 621.743 226.699 621.404 226.172C621.072 225.638 620.906 225.042 620.906 224.385C620.906 223.662 621.111 222.988 621.521 222.363C621.932 221.732 622.531 221.253 623.318 220.928C624.106 220.602 624.982 220.439 625.945 220.439C627.007 220.439 627.941 220.612 628.748 220.957C629.562 221.296 630.187 221.797 630.623 222.461C631.059 223.125 631.294 223.877 631.326 224.717L629.51 224.854C629.412 223.949 629.08 223.265 628.514 222.803C627.954 222.34 627.124 222.109 626.023 222.109C624.878 222.109 624.041 222.321 623.514 222.744C622.993 223.161 622.732 223.665 622.732 224.258C622.732 224.772 622.918 225.195 623.289 225.527C623.654 225.859 624.604 226.201 626.141 226.553C627.684 226.898 628.742 227.201 629.314 227.461C630.148 227.845 630.763 228.333 631.16 228.926C631.557 229.512 631.756 230.189 631.756 230.957C631.756 231.719 631.538 232.438 631.102 233.115C630.665 233.786 630.037 234.31 629.217 234.688C628.403 235.059 627.485 235.244 626.463 235.244C625.167 235.244 624.08 235.055 623.201 234.678C622.329 234.3 621.642 233.734 621.141 232.979C620.646 232.217 620.385 231.357 620.359 230.4ZM632.771 235L638.27 220.684H640.311L646.17 235H644.012L642.342 230.664H636.355L634.783 235H632.771ZM636.902 229.121H641.756L640.262 225.156C639.806 223.952 639.467 222.962 639.246 222.188C639.064 223.105 638.807 224.017 638.475 224.922L636.902 229.121ZM641.121 217.275H642.322C642.225 218.089 641.925 218.714 641.424 219.15C640.929 219.587 640.268 219.805 639.441 219.805C638.608 219.805 637.941 219.59 637.439 219.16C636.945 218.724 636.648 218.096 636.551 217.275H637.752C637.843 217.718 638.022 218.05 638.289 218.271C638.562 218.486 638.927 218.594 639.383 218.594C639.91 218.594 640.307 218.49 640.574 218.281C640.848 218.066 641.03 217.731 641.121 217.275ZM650.564 235L656.062 220.684H658.104L663.963 235H661.805L660.135 230.664H654.148L652.576 235H650.564ZM654.695 229.121H659.549L658.055 225.156C657.599 223.952 657.26 222.962 657.039 222.188C656.857 223.105 656.6 224.017 656.268 224.922L654.695 229.121ZM665.477 235V220.684H670.408C671.521 220.684 672.371 220.752 672.957 220.889C673.777 221.077 674.477 221.419 675.057 221.914C675.812 222.552 676.375 223.369 676.746 224.365C677.124 225.355 677.312 226.488 677.312 227.764C677.312 228.851 677.186 229.814 676.932 230.654C676.678 231.494 676.352 232.191 675.955 232.744C675.558 233.291 675.122 233.724 674.646 234.043C674.178 234.355 673.608 234.593 672.938 234.756C672.273 234.919 671.508 235 670.643 235H665.477ZM667.371 233.311H670.428C671.372 233.311 672.111 233.223 672.645 233.047C673.185 232.871 673.615 232.624 673.934 232.305C674.383 231.855 674.731 231.253 674.979 230.498C675.232 229.736 675.359 228.815 675.359 227.734C675.359 226.237 675.112 225.088 674.617 224.287C674.129 223.48 673.533 222.939 672.83 222.666C672.322 222.471 671.505 222.373 670.379 222.373H667.371V233.311ZM678.357 235L683.855 220.684H685.896L691.756 235H689.598L687.928 230.664H681.941L680.369 235H678.357ZM682.488 229.121H687.342L685.848 225.156C685.392 223.952 685.053 222.962 684.832 222.188C684.65 223.105 684.393 224.017 684.061 224.922L682.488 229.121ZM702.664 220.684H704.559V228.955C704.559 230.394 704.396 231.536 704.07 232.383C703.745 233.229 703.156 233.919 702.303 234.453C701.456 234.98 700.343 235.244 698.963 235.244C697.622 235.244 696.525 235.013 695.672 234.551C694.819 234.089 694.21 233.421 693.846 232.549C693.481 231.67 693.299 230.472 693.299 228.955V220.684H695.193V228.945C695.193 230.189 695.307 231.107 695.535 231.699C695.77 232.285 696.167 232.738 696.727 233.057C697.293 233.376 697.983 233.535 698.797 233.535C700.19 233.535 701.183 233.219 701.775 232.588C702.368 231.956 702.664 230.742 702.664 228.945V220.684ZM714.422 229.385V227.705L720.486 227.695V233.008C719.555 233.75 718.595 234.31 717.605 234.688C716.616 235.059 715.6 235.244 714.559 235.244C713.152 235.244 711.873 234.945 710.721 234.346C709.575 233.74 708.709 232.868 708.123 231.729C707.537 230.589 707.244 229.316 707.244 227.91C707.244 226.517 707.534 225.218 708.113 224.014C708.699 222.803 709.539 221.904 710.633 221.318C711.727 220.732 712.986 220.439 714.412 220.439C715.447 220.439 716.382 220.609 717.215 220.947C718.055 221.279 718.712 221.745 719.188 222.344C719.663 222.943 720.024 223.724 720.271 224.688L718.562 225.156C718.348 224.427 718.081 223.854 717.762 223.438C717.443 223.021 716.987 222.689 716.395 222.441C715.802 222.188 715.145 222.061 714.422 222.061C713.556 222.061 712.807 222.194 712.176 222.461C711.544 222.721 711.033 223.066 710.643 223.496C710.258 223.926 709.959 224.398 709.744 224.912C709.38 225.798 709.197 226.758 709.197 227.793C709.197 229.069 709.415 230.137 709.852 230.996C710.294 231.855 710.936 232.493 711.775 232.91C712.615 233.327 713.507 233.535 714.451 233.535C715.271 233.535 716.072 233.379 716.854 233.066C717.635 232.747 718.227 232.409 718.631 232.051V229.385H714.422ZM723.611 235V220.684H725.506V235H723.611ZM731.736 235L737.234 220.684H739.275L745.135 235H742.977L741.307 230.664H735.32L733.748 235H731.736ZM735.867 229.121H740.721L739.227 225.156C738.771 223.952 738.432 222.962 738.211 222.188C738.029 223.105 737.771 224.017 737.439 224.922L735.867 229.121ZM746.57 235V220.684H751.941C753.035 220.684 753.911 220.83 754.568 221.123C755.232 221.41 755.75 221.855 756.121 222.461C756.499 223.06 756.688 223.688 756.688 224.346C756.688 224.958 756.521 225.534 756.189 226.074C755.857 226.615 755.356 227.051 754.686 227.383C755.551 227.637 756.215 228.07 756.678 228.682C757.146 229.294 757.381 230.016 757.381 230.85C757.381 231.52 757.238 232.145 756.951 232.725C756.671 233.298 756.323 233.74 755.906 234.053C755.49 234.365 754.965 234.603 754.334 234.766C753.709 234.922 752.941 235 752.029 235H746.57ZM748.465 226.699H751.561C752.4 226.699 753.003 226.644 753.367 226.533C753.849 226.39 754.21 226.152 754.451 225.82C754.699 225.488 754.822 225.072 754.822 224.57C754.822 224.095 754.708 223.678 754.48 223.32C754.253 222.956 753.927 222.708 753.504 222.578C753.081 222.441 752.355 222.373 751.326 222.373H748.465V226.699ZM748.465 233.311H752.029C752.641 233.311 753.071 233.288 753.318 233.242C753.755 233.164 754.119 233.034 754.412 232.852C754.705 232.669 754.946 232.406 755.135 232.061C755.324 231.709 755.418 231.305 755.418 230.85C755.418 230.316 755.281 229.854 755.008 229.463C754.734 229.066 754.354 228.789 753.865 228.633C753.383 228.47 752.687 228.389 751.775 228.389H748.465V233.311ZM759.344 230.4L761.131 230.244C761.215 230.96 761.411 231.549 761.717 232.012C762.029 232.467 762.511 232.839 763.162 233.125C763.813 233.405 764.546 233.545 765.359 233.545C766.082 233.545 766.72 233.438 767.273 233.223C767.827 233.008 768.237 232.715 768.504 232.344C768.777 231.966 768.914 231.556 768.914 231.113C768.914 230.664 768.784 230.273 768.523 229.941C768.263 229.603 767.833 229.32 767.234 229.092C766.85 228.942 766.001 228.711 764.686 228.398C763.37 228.079 762.449 227.78 761.922 227.5C761.238 227.142 760.727 226.699 760.389 226.172C760.057 225.638 759.891 225.042 759.891 224.385C759.891 223.662 760.096 222.988 760.506 222.363C760.916 221.732 761.515 221.253 762.303 220.928C763.09 220.602 763.966 220.439 764.93 220.439C765.991 220.439 766.925 220.612 767.732 220.957C768.546 221.296 769.171 221.797 769.607 222.461C770.044 223.125 770.278 223.877 770.311 224.717L768.494 224.854C768.396 223.949 768.064 223.265 767.498 222.803C766.938 222.34 766.108 222.109 765.008 222.109C763.862 222.109 763.025 222.321 762.498 222.744C761.977 223.161 761.717 223.665 761.717 224.258C761.717 224.772 761.902 225.195 762.273 225.527C762.638 225.859 763.589 226.201 765.125 226.553C766.668 226.898 767.726 227.201 768.299 227.461C769.132 227.845 769.747 228.333 770.145 228.926C770.542 229.512 770.74 230.189 770.74 230.957C770.74 231.719 770.522 232.438 770.086 233.115C769.65 233.786 769.021 234.31 768.201 234.688C767.387 235.059 766.469 235.244 765.447 235.244C764.152 235.244 763.064 235.055 762.186 234.678C761.313 234.3 760.626 233.734 760.125 232.979C759.63 232.217 759.37 231.357 759.344 230.4ZM772.752 228.027C772.752 225.651 773.39 223.792 774.666 222.451C775.942 221.104 777.589 220.43 779.607 220.43C780.929 220.43 782.12 220.745 783.182 221.377C784.243 222.008 785.05 222.891 785.604 224.023C786.163 225.15 786.443 226.429 786.443 227.861C786.443 229.313 786.15 230.612 785.564 231.758C784.979 232.904 784.148 233.773 783.074 234.365C782 234.951 780.841 235.244 779.598 235.244C778.25 235.244 777.046 234.919 775.984 234.268C774.923 233.617 774.119 232.728 773.572 231.602C773.025 230.475 772.752 229.284 772.752 228.027ZM774.705 228.057C774.705 229.782 775.167 231.143 776.092 232.139C777.023 233.128 778.188 233.623 779.588 233.623C781.014 233.623 782.186 233.122 783.104 232.119C784.028 231.117 784.49 229.694 784.49 227.852C784.49 226.686 784.292 225.671 783.895 224.805C783.504 223.932 782.928 223.258 782.166 222.783C781.411 222.301 780.561 222.061 779.617 222.061C778.276 222.061 777.12 222.523 776.15 223.447C775.187 224.365 774.705 225.902 774.705 228.057ZM788.816 235V220.684H790.711V233.311H797.762V235H788.816ZM809.422 220.684H811.316V228.955C811.316 230.394 811.154 231.536 810.828 232.383C810.503 233.229 809.913 233.919 809.061 234.453C808.214 234.98 807.101 235.244 805.721 235.244C804.38 235.244 803.283 235.013 802.43 234.551C801.577 234.089 800.968 233.421 800.604 232.549C800.239 231.67 800.057 230.472 800.057 228.955V220.684H801.951V228.945C801.951 230.189 802.065 231.107 802.293 231.699C802.527 232.285 802.924 232.738 803.484 233.057C804.051 233.376 804.741 233.535 805.555 233.535C806.948 233.535 807.941 233.219 808.533 232.588C809.126 231.956 809.422 230.742 809.422 228.945V220.684ZM818.123 235V222.373H813.406V220.684H824.754V222.373H820.018V235H818.123ZM831.326 228.027C831.326 225.651 831.964 223.792 833.24 222.451C834.516 221.104 836.163 220.43 838.182 220.43C839.503 220.43 840.695 220.745 841.756 221.377C842.817 222.008 843.624 222.891 844.178 224.023C844.738 225.15 845.018 226.429 845.018 227.861C845.018 229.313 844.725 230.612 844.139 231.758C843.553 232.904 842.723 233.773 841.648 234.365C840.574 234.951 839.415 235.244 838.172 235.244C836.824 235.244 835.62 234.919 834.559 234.268C833.497 233.617 832.693 232.728 832.146 231.602C831.6 230.475 831.326 229.284 831.326 228.027ZM833.279 228.057C833.279 229.782 833.742 231.143 834.666 232.139C835.597 233.128 836.762 233.623 838.162 233.623C839.588 233.623 840.76 233.122 841.678 232.119C842.602 231.117 843.064 229.694 843.064 227.852C843.064 226.686 842.866 225.671 842.469 224.805C842.078 223.932 841.502 223.258 840.74 222.783C839.985 222.301 839.135 222.061 838.191 222.061C836.85 222.061 835.695 222.523 834.725 223.447C833.761 224.365 833.279 225.902 833.279 228.057ZM847.498 235V220.684H853.846C855.122 220.684 856.092 220.814 856.756 221.074C857.42 221.328 857.951 221.781 858.348 222.432C858.745 223.083 858.943 223.802 858.943 224.59C858.943 225.605 858.615 226.462 857.957 227.158C857.299 227.855 856.284 228.298 854.91 228.486C855.411 228.727 855.792 228.965 856.053 229.199C856.606 229.707 857.13 230.342 857.625 231.104L860.115 235H857.732L855.838 232.021C855.285 231.162 854.829 230.505 854.471 230.049C854.113 229.593 853.79 229.274 853.504 229.092C853.224 228.91 852.938 228.783 852.645 228.711C852.43 228.665 852.078 228.643 851.59 228.643H849.393V235H847.498ZM849.393 227.002H853.465C854.331 227.002 855.008 226.914 855.496 226.738C855.984 226.556 856.355 226.27 856.609 225.879C856.863 225.482 856.99 225.052 856.99 224.59C856.99 223.913 856.743 223.356 856.248 222.92C855.76 222.484 854.985 222.266 853.924 222.266H849.393V227.002ZM862.244 235V220.684H864.139V235H862.244ZM877.703 229.98L879.598 230.459C879.201 232.015 878.484 233.203 877.449 234.023C876.421 234.837 875.161 235.244 873.67 235.244C872.127 235.244 870.87 234.932 869.9 234.307C868.937 233.675 868.201 232.764 867.693 231.572C867.192 230.381 866.941 229.102 866.941 227.734C866.941 226.243 867.225 224.945 867.791 223.838C868.364 222.725 869.174 221.882 870.223 221.309C871.277 220.729 872.436 220.439 873.699 220.439C875.132 220.439 876.336 220.804 877.312 221.533C878.289 222.262 878.969 223.288 879.354 224.609L877.488 225.049C877.156 224.007 876.674 223.249 876.043 222.773C875.411 222.298 874.617 222.061 873.66 222.061C872.56 222.061 871.639 222.324 870.896 222.852C870.161 223.379 869.643 224.089 869.344 224.98C869.044 225.866 868.895 226.781 868.895 227.725C868.895 228.942 869.07 230.007 869.422 230.918C869.78 231.823 870.333 232.5 871.082 232.949C871.831 233.398 872.641 233.623 873.514 233.623C874.575 233.623 875.473 233.317 876.209 232.705C876.945 232.093 877.443 231.185 877.703 229.98ZM881.98 235V220.684H892.332V222.373H883.875V226.758H891.795V228.438H883.875V233.311H892.664V235H881.98ZM904.939 235L899.393 220.684H901.443L905.164 231.084C905.464 231.917 905.714 232.699 905.916 233.428C906.137 232.646 906.395 231.865 906.688 231.084L910.555 220.684H912.488L906.883 235H904.939ZM914.217 235V220.684H920.564C921.84 220.684 922.811 220.814 923.475 221.074C924.139 221.328 924.669 221.781 925.066 222.432C925.464 223.083 925.662 223.802 925.662 224.59C925.662 225.605 925.333 226.462 924.676 227.158C924.018 227.855 923.003 228.298 921.629 228.486C922.13 228.727 922.511 228.965 922.771 229.199C923.325 229.707 923.849 230.342 924.344 231.104L926.834 235H924.451L922.557 232.021C922.003 231.162 921.548 230.505 921.189 230.049C920.831 229.593 920.509 229.274 920.223 229.092C919.943 228.91 919.656 228.783 919.363 228.711C919.148 228.665 918.797 228.643 918.309 228.643H916.111V235H914.217ZM916.111 227.002H920.184C921.049 227.002 921.727 226.914 922.215 226.738C922.703 226.556 923.074 226.27 923.328 225.879C923.582 225.482 923.709 225.052 923.709 224.59C923.709 223.913 923.462 223.356 922.967 222.92C922.479 222.484 921.704 222.266 920.643 222.266H916.111V227.002ZM928.68 235V220.684H939.031V222.373H930.574V226.758H938.494V228.438H930.574V233.311H939.363V235H928.68ZM942.303 235V220.684H944.197V235H942.303Z" fill="black"/>
<rect x="315.5" y="192.5" width="803" height="739" stroke="black"/>
<mask id="path-5-inside-1_1004_180" fill="white">
<path d="M309 150C309 137.297 319.297 127 332 127H406C418.703 127 429 137.297 429 150V150C429 162.703 418.703 173 406 173H332C319.297 173 309 162.703 309 150V150Z"/>
</mask>
<path d="M309 150C309 137.297 319.297 127 332 127H406C418.703 127 429 137.297 429 150V150C429 162.703 418.703 173 406 173H332C319.297 173 309 162.703 309 150V150Z" fill="#FF9494"/>
<path d="M345.744 157.256C345.053 157.256 344.426 157.125 343.862 156.865C343.299 156.6 342.851 156.219 342.52 155.722C342.188 155.22 342.023 154.614 342.023 153.903C342.023 153.278 342.146 152.772 342.392 152.384C342.638 151.991 342.967 151.683 343.379 151.46C343.791 151.238 344.246 151.072 344.743 150.963C345.245 150.849 345.749 150.759 346.256 150.693C346.919 150.608 347.456 150.544 347.868 150.501C348.285 150.454 348.588 150.376 348.777 150.267C348.971 150.158 349.068 149.969 349.068 149.699V149.642C349.068 148.941 348.876 148.397 348.493 148.009C348.114 147.62 347.539 147.426 346.767 147.426C345.967 147.426 345.339 147.601 344.885 147.952C344.43 148.302 344.111 148.676 343.926 149.074L342.335 148.506C342.619 147.843 342.998 147.327 343.472 146.957C343.95 146.583 344.471 146.323 345.034 146.176C345.602 146.025 346.161 145.949 346.71 145.949C347.061 145.949 347.463 145.991 347.918 146.077C348.377 146.157 348.82 146.325 349.246 146.581C349.677 146.837 350.034 147.223 350.318 147.739C350.602 148.255 350.744 148.946 350.744 149.812V157H349.068V155.523H348.983C348.869 155.759 348.68 156.013 348.415 156.283C348.15 156.553 347.797 156.782 347.357 156.972C346.916 157.161 346.379 157.256 345.744 157.256ZM346 155.75C346.663 155.75 347.222 155.62 347.676 155.359C348.135 155.099 348.481 154.763 348.713 154.351C348.95 153.939 349.068 153.506 349.068 153.051V151.517C348.997 151.602 348.841 151.68 348.599 151.751C348.363 151.818 348.088 151.877 347.776 151.929C347.468 151.976 347.167 152.019 346.874 152.057C346.585 152.09 346.35 152.118 346.17 152.142C345.735 152.199 345.328 152.291 344.949 152.419C344.575 152.542 344.272 152.729 344.04 152.98C343.813 153.226 343.699 153.562 343.699 153.989C343.699 154.571 343.914 155.011 344.345 155.31C344.781 155.603 345.332 155.75 346 155.75ZM358.235 157.227C357.213 157.227 356.332 156.986 355.593 156.503C354.855 156.02 354.287 155.355 353.889 154.507C353.491 153.66 353.292 152.691 353.292 151.602C353.292 150.494 353.496 149.517 353.903 148.669C354.315 147.817 354.888 147.152 355.622 146.673C356.36 146.19 357.222 145.949 358.207 145.949C358.974 145.949 359.665 146.091 360.281 146.375C360.896 146.659 361.401 147.057 361.794 147.568C362.187 148.08 362.431 148.676 362.525 149.358H360.849C360.721 148.861 360.437 148.42 359.997 148.037C359.561 147.649 358.974 147.455 358.235 147.455C357.582 147.455 357.009 147.625 356.517 147.966C356.029 148.302 355.648 148.778 355.373 149.393C355.103 150.004 354.968 150.722 354.968 151.545C354.968 152.388 355.101 153.122 355.366 153.747C355.636 154.372 356.015 154.857 356.502 155.203C356.995 155.549 357.573 155.722 358.235 155.722C358.671 155.722 359.066 155.646 359.422 155.494C359.777 155.343 360.077 155.125 360.324 154.841C360.57 154.557 360.745 154.216 360.849 153.818H362.525C362.431 154.462 362.196 155.042 361.822 155.558C361.453 156.07 360.963 156.477 360.352 156.78C359.746 157.078 359.04 157.227 358.235 157.227ZM368.186 157.256C367.494 157.256 366.867 157.125 366.304 156.865C365.74 156.6 365.293 156.219 364.961 155.722C364.63 155.22 364.464 154.614 364.464 153.903C364.464 153.278 364.587 152.772 364.833 152.384C365.08 151.991 365.409 151.683 365.821 151.46C366.233 151.238 366.687 151.072 367.184 150.963C367.686 150.849 368.19 150.759 368.697 150.693C369.36 150.608 369.897 150.544 370.309 150.501C370.726 150.454 371.029 150.376 371.218 150.267C371.413 150.158 371.51 149.969 371.51 149.699V149.642C371.51 148.941 371.318 148.397 370.934 148.009C370.556 147.62 369.98 147.426 369.208 147.426C368.408 147.426 367.781 147.601 367.326 147.952C366.872 148.302 366.552 148.676 366.368 149.074L364.777 148.506C365.061 147.843 365.44 147.327 365.913 146.957C366.391 146.583 366.912 146.323 367.475 146.176C368.044 146.025 368.602 145.949 369.152 145.949C369.502 145.949 369.904 145.991 370.359 146.077C370.818 146.157 371.261 146.325 371.687 146.581C372.118 146.837 372.475 147.223 372.76 147.739C373.044 148.255 373.186 148.946 373.186 149.812V157H371.51V155.523H371.424C371.311 155.759 371.121 156.013 370.856 156.283C370.591 156.553 370.238 156.782 369.798 156.972C369.358 157.161 368.82 157.256 368.186 157.256ZM368.441 155.75C369.104 155.75 369.663 155.62 370.118 155.359C370.577 155.099 370.922 154.763 371.154 154.351C371.391 153.939 371.51 153.506 371.51 153.051V151.517C371.439 151.602 371.282 151.68 371.041 151.751C370.804 151.818 370.529 151.877 370.217 151.929C369.909 151.976 369.609 152.019 369.315 152.057C369.026 152.09 368.792 152.118 368.612 152.142C368.176 152.199 367.769 152.291 367.39 152.419C367.016 152.542 366.713 152.729 366.481 152.98C366.254 153.226 366.14 153.562 366.14 153.989C366.14 154.571 366.356 155.011 366.787 155.31C367.222 155.603 367.774 155.75 368.441 155.75ZM383.972 148.534L382.467 148.96C382.372 148.709 382.232 148.465 382.048 148.229C381.868 147.987 381.621 147.788 381.309 147.632C380.996 147.476 380.596 147.398 380.109 147.398C379.441 147.398 378.885 147.552 378.44 147.859C377.999 148.162 377.779 148.548 377.779 149.017C377.779 149.434 377.931 149.763 378.234 150.004C378.537 150.246 379.01 150.447 379.654 150.608L381.273 151.006C382.249 151.242 382.976 151.605 383.454 152.092C383.932 152.575 384.171 153.198 384.171 153.96C384.171 154.585 383.991 155.144 383.631 155.636C383.276 156.129 382.779 156.517 382.14 156.801C381.501 157.085 380.757 157.227 379.91 157.227C378.797 157.227 377.876 156.986 377.147 156.503C376.418 156.02 375.956 155.314 375.762 154.386L377.353 153.989C377.504 154.576 377.791 155.016 378.212 155.31C378.638 155.603 379.195 155.75 379.881 155.75C380.663 155.75 381.283 155.584 381.742 155.253C382.206 154.917 382.438 154.514 382.438 154.045C382.438 153.667 382.306 153.349 382.04 153.094C381.775 152.833 381.368 152.639 380.819 152.511L379.001 152.085C378.002 151.848 377.268 151.482 376.799 150.984C376.335 150.482 376.103 149.855 376.103 149.102C376.103 148.487 376.276 147.942 376.621 147.469C376.972 146.995 377.448 146.624 378.049 146.354C378.655 146.084 379.342 145.949 380.109 145.949C381.188 145.949 382.036 146.186 382.651 146.659C383.272 147.133 383.712 147.758 383.972 148.534ZM389.904 157.256C389.213 157.256 388.586 157.125 388.022 156.865C387.459 156.6 387.011 156.219 386.68 155.722C386.349 155.22 386.183 154.614 386.183 153.903C386.183 153.278 386.306 152.772 386.552 152.384C386.798 151.991 387.127 151.683 387.539 151.46C387.951 151.238 388.406 151.072 388.903 150.963C389.405 150.849 389.909 150.759 390.416 150.693C391.079 150.608 391.616 150.544 392.028 150.501C392.445 150.454 392.748 150.376 392.937 150.267C393.131 150.158 393.228 149.969 393.228 149.699V149.642C393.228 148.941 393.037 148.397 392.653 148.009C392.274 147.62 391.699 147.426 390.927 147.426C390.127 147.426 389.5 147.601 389.045 147.952C388.591 148.302 388.271 148.676 388.086 149.074L386.495 148.506C386.779 147.843 387.158 147.327 387.632 146.957C388.11 146.583 388.631 146.323 389.194 146.176C389.762 146.025 390.321 145.949 390.87 145.949C391.221 145.949 391.623 145.991 392.078 146.077C392.537 146.157 392.98 146.325 393.406 146.581C393.837 146.837 394.194 147.223 394.478 147.739C394.762 148.255 394.904 148.946 394.904 149.812V157H393.228V155.523H393.143C393.029 155.759 392.84 156.013 392.575 156.283C392.31 156.553 391.957 156.782 391.517 156.972C391.076 157.161 390.539 157.256 389.904 157.256ZM390.16 155.75C390.823 155.75 391.382 155.62 391.836 155.359C392.296 155.099 392.641 154.763 392.873 154.351C393.11 153.939 393.228 153.506 393.228 153.051V151.517C393.157 151.602 393.001 151.68 392.76 151.751C392.523 151.818 392.248 151.877 391.936 151.929C391.628 151.976 391.327 152.019 391.034 152.057C390.745 152.09 390.511 152.118 390.331 152.142C389.895 152.199 389.488 152.291 389.109 152.419C388.735 152.542 388.432 152.729 388.2 152.98C387.973 153.226 387.859 153.562 387.859 153.989C387.859 154.571 388.074 155.011 388.505 155.31C388.941 155.603 389.493 155.75 390.16 155.75ZM392.376 142.455H393.939C393.939 143.222 393.673 143.849 393.143 144.337C392.613 144.824 391.893 145.068 390.984 145.068C390.089 145.068 389.377 144.824 388.846 144.337C388.321 143.849 388.058 143.222 388.058 142.455H389.62C389.62 142.824 389.722 143.148 389.926 143.428C390.134 143.707 390.487 143.847 390.984 143.847C391.481 143.847 391.836 143.707 392.049 143.428C392.267 143.148 392.376 142.824 392.376 142.455Z" fill="black"/>
<path d="M309 127H429H309ZM429 173H309H429ZM309 173V127V173ZM414 127C426.703 127 437 137.297 437 150C437 162.703 426.703 173 414 173H406C414.284 173 421 162.703 421 150C421 137.297 414.284 127 406 127H414Z" fill="black" mask="url(#path-5-inside-1_1004_180)"/>
<path d="M309 127H429H309ZM429 173H309H429ZM309 173V127V173ZM414 127C426.703 127 437 137.297 437 150C437 162.703 426.703 173 414 173H406C414.284 173 421 162.703 421 150C421 137.297 414.284 127 406 127H414Z" fill="black" fill-opacity="0.2" mask="url(#path-5-inside-1_1004_180)"/>
<path d="M480.261 148.534L478.756 148.96C478.661 148.709 478.521 148.465 478.337 148.229C478.157 147.987 477.911 147.788 477.598 147.632C477.286 147.476 476.885 147.398 476.398 147.398C475.73 147.398 475.174 147.552 474.729 147.859C474.288 148.162 474.068 148.548 474.068 149.017C474.068 149.434 474.22 149.763 474.523 150.004C474.826 150.246 475.299 150.447 475.943 150.608L477.562 151.006C478.538 151.242 479.265 151.605 479.743 152.092C480.221 152.575 480.46 153.198 480.46 153.96C480.46 154.585 480.28 155.144 479.92 155.636C479.565 156.129 479.068 156.517 478.429 156.801C477.79 157.085 477.046 157.227 476.199 157.227C475.086 157.227 474.165 156.986 473.436 156.503C472.707 156.02 472.245 155.314 472.051 154.386L473.642 153.989C473.794 154.576 474.08 155.016 474.501 155.31C474.928 155.603 475.484 155.75 476.17 155.75C476.952 155.75 477.572 155.584 478.031 155.253C478.495 154.917 478.727 154.514 478.727 154.045C478.727 153.667 478.595 153.349 478.33 153.094C478.064 152.833 477.657 152.639 477.108 152.511L475.29 152.085C474.291 151.848 473.557 151.482 473.088 150.984C472.624 150.482 472.392 149.855 472.392 149.102C472.392 148.487 472.565 147.942 472.911 147.469C473.261 146.995 473.737 146.624 474.338 146.354C474.944 146.084 475.631 145.949 476.398 145.949C477.477 145.949 478.325 146.186 478.94 146.659C479.561 147.133 480.001 147.758 480.261 148.534ZM487.557 157.227C486.506 157.227 485.599 156.995 484.837 156.531C484.079 156.062 483.495 155.409 483.083 154.571C482.676 153.728 482.472 152.748 482.472 151.631C482.472 150.513 482.676 149.528 483.083 148.676C483.495 147.819 484.068 147.152 484.801 146.673C485.54 146.19 486.402 145.949 487.387 145.949C487.955 145.949 488.516 146.044 489.07 146.233C489.624 146.422 490.128 146.73 490.583 147.156C491.037 147.578 491.4 148.136 491.669 148.832C491.939 149.528 492.074 150.385 492.074 151.403V152.114H483.665V150.665H490.37C490.37 150.049 490.247 149.5 490 149.017C489.759 148.534 489.413 148.153 488.963 147.874C488.518 147.594 487.993 147.455 487.387 147.455C486.719 147.455 486.141 147.62 485.654 147.952C485.171 148.278 484.799 148.705 484.539 149.23C484.278 149.756 484.148 150.319 484.148 150.92V151.886C484.148 152.71 484.29 153.409 484.574 153.982C484.863 154.55 485.263 154.983 485.775 155.281C486.286 155.575 486.88 155.722 487.557 155.722C487.998 155.722 488.395 155.66 488.75 155.537C489.11 155.409 489.42 155.22 489.681 154.969C489.941 154.713 490.142 154.396 490.284 154.017L491.904 154.472C491.733 155.021 491.447 155.504 491.044 155.92C490.642 156.332 490.145 156.654 489.553 156.886C488.961 157.114 488.296 157.227 487.557 157.227ZM494.624 157V146.091H496.243V147.739H496.357C496.556 147.199 496.916 146.761 497.436 146.425C497.957 146.089 498.544 145.92 499.198 145.92C499.321 145.92 499.475 145.923 499.659 145.928C499.844 145.932 499.984 145.939 500.078 145.949V147.653C500.022 147.639 499.891 147.618 499.688 147.589C499.489 147.556 499.278 147.54 499.056 147.54C498.525 147.54 498.052 147.651 497.635 147.874C497.223 148.091 496.897 148.394 496.655 148.783C496.418 149.166 496.3 149.604 496.3 150.097V157H494.624ZM511.318 146.091L507.284 157H505.579L501.545 146.091H503.363L506.375 154.784H506.488L509.5 146.091H511.318ZM513.53 157V146.091H515.206V157H513.53ZM514.382 144.273C514.056 144.273 513.774 144.161 513.537 143.939C513.305 143.716 513.189 143.449 513.189 143.136C513.189 142.824 513.305 142.556 513.537 142.334C513.774 142.111 514.056 142 514.382 142C514.709 142 514.989 142.111 515.221 142.334C515.457 142.556 515.576 142.824 515.576 143.136C515.576 143.449 515.457 143.716 515.221 143.939C514.989 144.161 514.709 144.273 514.382 144.273ZM522.708 157.227C521.685 157.227 520.805 156.986 520.066 156.503C519.327 156.02 518.759 155.355 518.362 154.507C517.964 153.66 517.765 152.691 517.765 151.602C517.765 150.494 517.969 149.517 518.376 148.669C518.788 147.817 519.361 147.152 520.094 146.673C520.833 146.19 521.695 145.949 522.68 145.949C523.447 145.949 524.138 146.091 524.754 146.375C525.369 146.659 525.873 147.057 526.266 147.568C526.659 148.08 526.903 148.676 526.998 149.358H525.322C525.194 148.861 524.91 148.42 524.469 148.037C524.034 147.649 523.447 147.455 522.708 147.455C522.055 147.455 521.482 147.625 520.989 147.966C520.502 148.302 520.121 148.778 519.846 149.393C519.576 150.004 519.441 150.722 519.441 151.545C519.441 152.388 519.574 153.122 519.839 153.747C520.109 154.372 520.487 154.857 520.975 155.203C521.468 155.549 522.045 155.722 522.708 155.722C523.144 155.722 523.539 155.646 523.894 155.494C524.249 155.343 524.55 155.125 524.796 154.841C525.042 154.557 525.218 154.216 525.322 153.818H526.998C526.903 154.462 526.669 155.042 526.295 155.558C525.925 156.07 525.435 156.477 524.825 156.78C524.219 157.078 523.513 157.227 522.708 157.227ZM529.448 157V146.091H531.124V157H529.448ZM530.3 144.273C529.974 144.273 529.692 144.161 529.455 143.939C529.223 143.716 529.107 143.449 529.107 143.136C529.107 142.824 529.223 142.556 529.455 142.334C529.692 142.111 529.974 142 530.3 142C530.627 142 530.906 142.111 531.138 142.334C531.375 142.556 531.494 142.824 531.494 143.136C531.494 143.449 531.375 143.716 531.138 143.939C530.906 144.161 530.627 144.273 530.3 144.273ZM534.194 157V146.091H535.87V157H534.194ZM535.047 144.273C534.72 144.273 534.438 144.161 534.201 143.939C533.969 143.716 533.853 143.449 533.853 143.136C533.853 142.824 533.969 142.556 534.201 142.334C534.438 142.111 534.72 142 535.047 142C535.373 142 535.653 142.111 535.885 142.334C536.121 142.556 536.24 142.824 536.24 143.136C536.24 143.449 536.121 143.716 535.885 143.939C535.653 144.161 535.373 144.273 535.047 144.273Z" fill="black"/>
<path d="M439 127H570H439ZM570 173H439H570ZM439 173V127V173ZM555 127C567.703 127 578 137.297 578 150C578 162.703 567.703 173 555 173H547C555.284 173 562 162.703 562 150C562 137.297 555.284 127 547 127H555Z" fill="black" mask="url(#path-8-inside-2_1004_180)"/>
<path d="M439 127H570H439ZM570 173H439H570ZM439 173V127V173ZM555 127C567.703 127 578 137.297 578 150C578 162.703 567.703 173 555 173H547C555.284 173 562 162.703 562 150C562 137.297 555.284 127 547 127H555Z" fill="black" fill-opacity="0.2" mask="url(#path-8-inside-2_1004_180)"/>
<path d="M617.966 157.227C616.943 157.227 616.063 156.986 615.324 156.503C614.585 156.02 614.017 155.355 613.619 154.507C613.222 153.66 613.023 152.691 613.023 151.602C613.023 150.494 613.226 149.517 613.634 148.669C614.045 147.817 614.618 147.152 615.352 146.673C616.091 146.19 616.953 145.949 617.938 145.949C618.705 145.949 619.396 146.091 620.011 146.375C620.627 146.659 621.131 147.057 621.524 147.568C621.917 148.08 622.161 148.676 622.256 149.358H620.58C620.452 148.861 620.168 148.42 619.727 148.037C619.292 147.649 618.705 147.455 617.966 147.455C617.313 147.455 616.74 147.625 616.247 147.966C615.759 148.302 615.378 148.778 615.104 149.393C614.834 150.004 614.699 150.722 614.699 151.545C614.699 152.388 614.831 153.122 615.097 153.747C615.366 154.372 615.745 154.857 616.233 155.203C616.725 155.549 617.303 155.722 617.966 155.722C618.402 155.722 618.797 155.646 619.152 155.494C619.507 155.343 619.808 155.125 620.054 154.841C620.3 154.557 620.475 154.216 620.58 153.818H622.256C622.161 154.462 621.927 155.042 621.553 155.558C621.183 156.07 620.693 156.477 620.082 156.78C619.476 157.078 618.771 157.227 617.966 157.227ZM629.138 157.227C628.153 157.227 627.289 156.993 626.545 156.524C625.807 156.055 625.229 155.4 624.812 154.557C624.401 153.714 624.195 152.729 624.195 151.602C624.195 150.466 624.401 149.474 624.812 148.626C625.229 147.779 625.807 147.121 626.545 146.652C627.289 146.183 628.153 145.949 629.138 145.949C630.123 145.949 630.984 146.183 631.723 146.652C632.466 147.121 633.044 147.779 633.456 148.626C633.873 149.474 634.081 150.466 634.081 151.602C634.081 152.729 633.873 153.714 633.456 154.557C633.044 155.4 632.466 156.055 631.723 156.524C630.984 156.993 630.123 157.227 629.138 157.227ZM629.138 155.722C629.886 155.722 630.501 155.53 630.984 155.146C631.467 154.763 631.825 154.259 632.057 153.634C632.289 153.009 632.405 152.331 632.405 151.602C632.405 150.873 632.289 150.194 632.057 149.564C631.825 148.934 631.467 148.425 630.984 148.037C630.501 147.649 629.886 147.455 629.138 147.455C628.39 147.455 627.774 147.649 627.291 148.037C626.808 148.425 626.451 148.934 626.219 149.564C625.987 150.194 625.871 150.873 625.871 151.602C625.871 152.331 625.987 153.009 626.219 153.634C626.451 154.259 626.808 154.763 627.291 155.146C627.774 155.53 628.39 155.722 629.138 155.722ZM638.316 150.438V157H636.64V146.091H638.259V147.795H638.401C638.657 147.241 639.045 146.796 639.566 146.46C640.087 146.119 640.759 145.949 641.583 145.949C642.321 145.949 642.968 146.1 643.522 146.403C644.076 146.702 644.507 147.156 644.814 147.767C645.122 148.373 645.276 149.14 645.276 150.068V157H643.6V150.182C643.6 149.325 643.377 148.657 642.932 148.179C642.487 147.696 641.876 147.455 641.1 147.455C640.565 147.455 640.087 147.571 639.665 147.803C639.248 148.035 638.919 148.373 638.678 148.818C638.436 149.263 638.316 149.803 638.316 150.438ZM653.083 146.091V147.511H647.43V146.091H653.083ZM649.077 143.477H650.754V153.875C650.754 154.348 650.822 154.704 650.96 154.94C651.102 155.172 651.281 155.329 651.499 155.409C651.722 155.485 651.956 155.523 652.202 155.523C652.387 155.523 652.539 155.513 652.657 155.494C652.775 155.471 652.87 155.452 652.941 155.438L653.282 156.943C653.168 156.986 653.01 157.028 652.806 157.071C652.603 157.118 652.344 157.142 652.032 157.142C651.558 157.142 651.094 157.04 650.64 156.837C650.19 156.633 649.816 156.323 649.518 155.906C649.224 155.49 649.077 154.964 649.077 154.33V143.477ZM658.815 157.256C658.123 157.256 657.496 157.125 656.933 156.865C656.369 156.6 655.922 156.219 655.59 155.722C655.259 155.22 655.093 154.614 655.093 153.903C655.093 153.278 655.216 152.772 655.462 152.384C655.709 151.991 656.038 151.683 656.45 151.46C656.862 151.238 657.316 151.072 657.813 150.963C658.315 150.849 658.819 150.759 659.326 150.693C659.989 150.608 660.526 150.544 660.938 150.501C661.355 150.454 661.658 150.376 661.847 150.267C662.041 150.158 662.138 149.969 662.138 149.699V149.642C662.138 148.941 661.947 148.397 661.563 148.009C661.184 147.62 660.609 147.426 659.837 147.426C659.037 147.426 658.41 147.601 657.955 147.952C657.501 148.302 657.181 148.676 656.996 149.074L655.406 148.506C655.69 147.843 656.068 147.327 656.542 146.957C657.02 146.583 657.541 146.323 658.104 146.176C658.673 146.025 659.231 145.949 659.781 145.949C660.131 145.949 660.533 145.991 660.988 146.077C661.447 146.157 661.89 146.325 662.316 146.581C662.747 146.837 663.104 147.223 663.388 147.739C663.673 148.255 663.815 148.946 663.815 149.812V157H662.138V155.523H662.053C661.94 155.759 661.75 156.013 661.485 156.283C661.22 156.553 660.867 156.782 660.427 156.972C659.987 157.161 659.449 157.256 658.815 157.256ZM659.07 155.75C659.733 155.75 660.292 155.62 660.746 155.359C661.206 155.099 661.551 154.763 661.783 154.351C662.02 153.939 662.138 153.506 662.138 153.051V151.517C662.067 151.602 661.911 151.68 661.67 151.751C661.433 151.818 661.158 151.877 660.846 151.929C660.538 151.976 660.237 152.019 659.944 152.057C659.655 152.09 659.421 152.118 659.241 152.142C658.805 152.199 658.398 152.291 658.019 152.419C657.645 152.542 657.342 152.729 657.11 152.98C656.883 153.226 656.769 153.562 656.769 153.989C656.769 154.571 656.985 155.011 657.415 155.31C657.851 155.603 658.403 155.75 659.07 155.75ZM671.306 157.227C670.283 157.227 669.402 156.986 668.664 156.503C667.925 156.02 667.357 155.355 666.959 154.507C666.561 153.66 666.363 152.691 666.363 151.602C666.363 150.494 666.566 149.517 666.973 148.669C667.385 147.817 667.958 147.152 668.692 146.673C669.431 146.19 670.292 145.949 671.277 145.949C672.044 145.949 672.736 146.091 673.351 146.375C673.967 146.659 674.471 147.057 674.864 147.568C675.257 148.08 675.501 148.676 675.596 149.358H673.919C673.792 148.861 673.507 148.42 673.067 148.037C672.632 147.649 672.044 147.455 671.306 147.455C670.652 147.455 670.079 147.625 669.587 147.966C669.099 148.302 668.718 148.778 668.444 149.393C668.174 150.004 668.039 150.722 668.039 151.545C668.039 152.388 668.171 153.122 668.436 153.747C668.706 154.372 669.085 154.857 669.573 155.203C670.065 155.549 670.643 155.722 671.306 155.722C671.741 155.722 672.137 155.646 672.492 155.494C672.847 155.343 673.148 155.125 673.394 154.841C673.64 154.557 673.815 154.216 673.919 153.818H675.596C675.501 154.462 675.266 155.042 674.892 155.558C674.523 156.07 674.033 156.477 673.422 156.78C672.816 157.078 672.111 157.227 671.306 157.227ZM682.79 146.091V147.511H677.137V146.091H682.79ZM678.784 143.477H680.461V153.875C680.461 154.348 680.529 154.704 680.667 154.94C680.809 155.172 680.989 155.329 681.206 155.409C681.429 155.485 681.663 155.523 681.909 155.523C682.094 155.523 682.246 155.513 682.364 155.494C682.482 155.471 682.577 155.452 682.648 155.438L682.989 156.943C682.875 156.986 682.717 157.028 682.513 157.071C682.31 157.118 682.051 157.142 681.739 157.142C681.266 157.142 680.801 157.04 680.347 156.837C679.897 156.633 679.523 156.323 679.225 155.906C678.931 155.49 678.784 154.964 678.784 154.33V143.477Z" fill="black"/>
<path d="M580 127H716H580ZM716 173H580H716ZM580 173V127V173ZM701 127C713.703 127 724 137.297 724 150C724 162.703 713.703 173 701 173H693C701.284 173 708 162.703 708 150C708 137.297 701.284 127 693 127H701Z" fill="black" mask="url(#path-11-inside-3_1004_180)"/>
<path d="M580 127H716H580ZM716 173H580H716ZM580 173V127V173ZM701 127C713.703 127 724 137.297 724 150C724 162.703 713.703 173 701 173H693C701.284 173 708 162.703 708 150C708 137.297 701.284 127 693 127H701Z" fill="black" fill-opacity="0.2" mask="url(#path-11-inside-3_1004_180)"/>
</g>
<defs>
<filter id="filter0_d_1004_180" x="275" y="40" width="906" height="957" filterUnits="userSpaceOnUse" color-interpolation-filters="sRGB">
<feFlood flood-opacity="0" result="BackgroundImageFix"/>
<feColorMatrix in="SourceAlpha" type="matrix" values="0 0 0 0 0 0 0 0 0 0 0 0 0 0 0 0 0 0 127 0" result="hardAlpha"/>
<feMorphology radius="6" operator="erode" in="SourceAlpha" result="effect1_dropShadow_1004_180"/>
<feOffset dx="8" dy="6"/>
<feGaussianBlur stdDeviation="9"/>
<feComposite in2="hardAlpha" operator="out"/>
<feColorMatrix type="matrix" values="0 0 0 0 0 0 0 0 0 0 0 0 0 0 0 0 0 0 0.25 0"/>
<feBlend mode="normal" in2="BackgroundImageFix" result="effect1_dropShadow_1004_180"/>
<feBlend mode="normal" in="SourceGraphic" in2="effect1_dropShadow_1004_180" result="shape"/>
</filter>
<radialGradient id="paint0_radial_1004_180" cx="0" cy="0" r="1" gradientUnits="userSpaceOnUse" gradientTransform="translate(720 512) rotate(90) scale(512 720)">
<stop offset="0.510417" stop-color="white"/>
<stop offset="1" stop-color="#EDFFF7"/>
</radialGradient>
</defs>
</svg>
